<svg id="Layer_1" data-name="Layer 1" xmlns="http://www.w3.org/2000/svg" viewBox="0 0 259 95"><defs><style>.cls-1{fill:#67dbff;}.cls-1,.cls-2,.cls-3{fill-rule:evenodd;}.cls-2{fill:#01a3ff;}.cls-3{fill:#0162ff;}.cls-4{fill:#fff;}</style></defs><path class="cls-1" d="M46.8,36.76H68.53V15.48H25.47v.2Z"/><path class="cls-2" d="M46.81,36.76H25.08V58H68.14v-.19L46.81,36.76Z"/><path class="cls-3" d="M25.08,58H46.61V79.52Z"/><path class="cls-4" d="M98.12,58V46.31h13V40.8h-13V33.05h14V27.49H91.81V58Z"/><path class="cls-4" d="M128.32,35.69A6.2,6.2,0,0,0,121,38V35.79h-6.15V58H121V44.23a4,4,0,0,1,4.23-3.13,6.17,6.17,0,0,1,3.07.74Z"/><path class="cls-4" d="M148.83,58V43.83c0-5.31-3.43-8.54-9.34-8.54-5.06,0-8.69,3.08-9.33,7.1H136a3.18,3.18,0,0,1,3.28-2.09,3.26,3.26,0,0,1,3.62,3.43v1.64a10.27,10.27,0,0,0-5.06-1.29c-4.82,0-8.6,2.88-8.6,7.1,0,4.62,3.78,7.2,8.25,7.2,2.43,0,4.67-.84,5.41-1.59V58Zm-5.91-6c-.55,1.19-2.23,1.93-4,1.93-1.94,0-3.92-.79-3.92-2.73s2-2.73,3.92-2.73c1.79,0,3.47.74,4,1.94Z"/><path class="cls-4" d="M170.57,38.12a7.35,7.35,0,0,0-6-2.83A7.06,7.06,0,0,0,159,37.62V35.79h-6.16V58H159V43.68a3.48,3.48,0,0,1,3.48-2.88c2.13,0,3.13,1.59,3.13,4V58h6.2V43.68a3.43,3.43,0,0,1,3.43-2.88c2.13,0,3.18,1.59,3.18,4V58h6.16V43.48c0-5-2.74-8.19-7.3-8.19A8.66,8.66,0,0,0,170.57,38.12Z"/><path class="cls-4" d="M202.21,50.73c-.49,1.89-2,2.78-4.12,2.78-2.73,0-4.62-2-4.81-5.31h14.8V46.31c0-6.5-3.58-11-10.09-11-6.2,0-10.67,4.92-10.67,11.62,0,6.85,4.32,11.57,10.77,11.57,5.57,0,9-3,9.84-7.75ZM198,40.3c2.54,0,3.93,1.84,4,4.18h-8.6C194,41.75,195.66,40.3,198,40.3Z"/><path class="cls-4" d="M224.45,35.69a6.2,6.2,0,0,0-7.3,2.28V35.79H211V58h6.16V44.23a4,4,0,0,1,4.22-3.13,6.21,6.21,0,0,1,3.08.74Z"/></svg>